<svg width="92" height="25" viewBox="0 0 92 25" fill="none" xmlns="http://www.w3.org/2000/svg">
<path d="M44.9393 24.0607C45.5251 24.6464 46.4749 24.6464 47.0607 24.0607L56.6066 14.5147C57.1924 13.9289 57.1924 12.9792 56.6066 12.3934C56.0208 11.8076 55.0711 11.8076 54.4853 12.3934L46 20.8787L37.5147 12.3934C36.9289 11.8076 35.9792 11.8076 35.3934 12.3934C34.8076 12.9792 34.8076 13.9289 35.3934 14.5147L44.9393 24.0607ZM44.5 -3.67815e-08L44.5 23L47.5 23L47.5 3.67815e-08L44.5 -3.67815e-08Z" fill="black"/>
<path d="M78.9393 24.0607C79.5251 24.6464 80.4749 24.6464 81.0607 24.0607L90.6066 14.5147C91.1924 13.9289 91.1924 12.9792 90.6066 12.3934C90.0208 11.8076 89.0711 11.8076 88.4853 12.3934L80 20.8787L71.5147 12.3934C70.9289 11.8076 69.9792 11.8076 69.3934 12.3934C68.8076 12.9792 68.8076 13.9289 69.3934 14.5147L78.9393 24.0607ZM78.5 -3.67815e-08L78.5 23L81.5 23L81.5 3.67815e-08L78.5 -3.67815e-08Z" fill="black"/>
<path d="M10.9393 24.0607C11.5251 24.6464 12.4749 24.6464 13.0607 24.0607L22.6066 14.5147C23.1924 13.9289 23.1924 12.9792 22.6066 12.3934C22.0208 11.8076 21.0711 11.8076 20.4853 12.3934L12 20.8787L3.51472 12.3934C2.92893 11.8076 1.97918 11.8076 1.3934 12.3934C0.807611 12.9792 0.807611 13.9289 1.3934 14.5147L10.9393 24.0607ZM10.5 -3.67815e-08L10.5 23L13.5 23L13.5 3.67815e-08L10.5 -3.67815e-08Z" fill="black"/>
</svg>
