<svg id="Layer_1" data-name="Layer 1" xmlns="http://www.w3.org/2000/svg" viewBox="0 0 500 500"><defs><style>.cls-1{fill:none;stroke-width:2px;}.cls-1,.cls-2{stroke:#000;stroke-miterlimit:10;}</style></defs><path class="cls-1" d="M64.56,275a113.4,113.4,0,0,1-27.23-3.36,117.23,117.23,0,0,1-25-8.86c.62-11.33,1.32-22.63,1.95-33.9l3.43.12c3.49,5.49,6.81,10.91,9.76,16.28a142.34,142.34,0,0,0,7.87,12.23,25.2,25.2,0,0,0,10.6,8.26,32.7,32.7,0,0,0,9.16,3.32,55.91,55.91,0,0,0,10.56.83A59.89,59.89,0,0,0,96,261.42c9.41-5.57,16-12.55,18-20.61,1.8-7.6-.34-13.27-4.88-17.38s-12.2-8.08-23-12.23q-6.21-2.16-12.57-4.44c-17.81-6.41-32.72-14.34-43.34-23.35S14.42,162.8,14.31,149.12a40.49,40.49,0,0,1,7.57-24.92c5-6.91,11.83-12.4,20.83-16.52a75.8,75.8,0,0,1,31.86-6.45A63.41,63.41,0,0,1,99,105.87,60.3,60.3,0,0,1,118,118.21a114.7,114.7,0,0,0,2,33.92l-2.31,0a169.08,169.08,0,0,1-12.9-20.75c-3.22-6.79-5.85-11.91-8.52-14.93a22.69,22.69,0,0,0-9.21-6.55A29.85,29.85,0,0,0,81.3,108a41.93,41.93,0,0,0-6.86-.58,29,29,0,0,0-21.11,8.12c-5.55,5.36-8,12.37-7.13,21.15.93,9,4.24,16.08,9.88,21.61s13.61,10.56,23.7,14.95q6.66,2.76,13.3,5.38c18.46,7.3,32.36,14,41.67,20.86S150.4,215,150.61,226.07c.27,13-10.36,24.73-27.85,34.33A122.26,122.26,0,0,1,64.56,275Z"/><path class="cls-1" d="M219.74,274.75c-10.18,0-18-2.34-24-6.54s-10.13-10.15-14.09-17.27-7.43-15.45-12-24.89S160,206,154.68,193.4s-8.63-23.92-8-34.68a48.14,48.14,0,0,1,11.54-29.15A79.11,79.11,0,0,1,185.93,109c10.91-5,22.11-7.64,32-7.63,10.16,0,18.39,2.47,25,7s11.09,10.94,15.4,18.59,8.15,16.47,13.48,26.1S283.44,173.1,290,185.22c6.35,11.84,10.3,22.84,9.44,33.4s-5.77,20.32-14.22,28.69-19.63,15.32-31.57,20.13S229.85,274.75,219.74,274.75Zm4.79-6.56a46.93,46.93,0,0,0,26.7-9.19c8.15-5.9,15.58-15.75,17.42-27.67,2.19-12-2.46-26.55-12.46-43.72s-16.45-31.6-18.65-43.4c-2.53-11.66-2.74-21.32-5.7-27.16s-8.29-9.11-17.28-9A37.55,37.55,0,0,0,190,117.59c-7,6.17-12.56,16.44-12.92,28.89-.72,12.55,5,27.87,14.24,45.5s13.56,31.3,14.5,42.51c1.21,11.1.34,20,2.64,25.42S215.6,268.29,224.53,268.19Z"/><path class="cls-1" d="M305.9,268.55c.45-1.11.88-2.2,1.27-3.29l5.58-2.29c6.15-2.36,10.69-8.55,11.33-17.42,3.5-49.24-43.53-74.66-25.69-118.62a63.76,63.76,0,0,0,3-8.45c.5-2.16-.25-4-2.37-5.44q-2.08-1.65-4.06-3.37c.68-1,1.4-2,2.14-3l48.18-.46C324.74,150.68,369,176.61,393.53,218.6c1.14-20.15.72-37.66,6.91-55.82,5.84-18.06,18.28-36.76,37-57.22q25.82-.11,52.37-.1l0,2.5q-2.24.75-4.53,1.49c-3.63,1.16-6.3,2.78-7.9,4.84a15.52,15.52,0,0,0-3,8c-4.45,43,1.26,84.51,2.88,129.73a22.65,22.65,0,0,0,1.5,8.16c.88,2,2.92,3.74,6.11,5.26l5,2.51v2.51q-31.2-.9-61.82-1.35c.05-1,.08-2,.11-3.07l5.17-2.58c3.09-1.5,5-3.28,5.75-5.37a21.73,21.73,0,0,0,.7-8.73c-1.69-20.94-6.39-39.57-10.08-57.36-4.5-22.6-7.32-43.87-.39-66.79-17.43,23.42-24.84,44.44-27,66.5-2.77,22.21-.23,45.44-12.81,76.95l-12.22-.09C372.44,204.12,305,176.29,302.23,130c-7,20.83.49,37.62,9.5,55.21,8.89,17.81,19.33,36.43,17.76,60.82a49.69,49.69,0,0,0,.11,10.65,7.91,7.91,0,0,0,4.66,6.18l4.7,2.28c-.28,1.09-.59,2.2-.91,3.32Q322,268.49,305.9,268.55Z"/><path class="cls-2" d="M35.9,396.36a67.16,67.16,0,0,1-16.32-2,70.14,70.14,0,0,1-15-5.32c.35-6.8.76-13.59,1.13-20.38l2.05.05c2.09,3.28,4.09,6.53,5.87,9.77a83.55,83.55,0,0,0,4.75,7.38,15.21,15.21,0,0,0,6.4,5,19.89,19.89,0,0,0,5.52,2,33.25,33.25,0,0,0,6.37.51,39.58,39.58,0,0,0,18.84-5c6-3.27,10.53-7.41,12-12.34,1.39-4.64.13-8.19-2.75-10.79s-7.8-5.15-14.65-7.76q-4-1.35-8-2.76c-11.24-3.92-20.38-8.57-26.82-13.8s-9.5-12-9.57-20.24a24.86,24.86,0,0,1,4.57-15.1,30,30,0,0,1,12.54-9.89A46.81,46.81,0,0,1,42,292a42.42,42.42,0,0,1,14.86,2.57,41.17,41.17,0,0,1,12.05,7,69.86,69.86,0,0,0,2.93,19.83l-1.48-.06a114.24,114.24,0,0,1-9-12.28c-2.28-3.93-4.08-6.84-5.81-8.55a15.07,15.07,0,0,0-5.81-3.67,20.32,20.32,0,0,0-3.56-1,26.69,26.69,0,0,0-4.15-.31,17.7,17.7,0,0,0-12.67,4.68c-3.33,3.1-4.8,7.21-4.23,12.38a19.63,19.63,0,0,0,6.15,12.71q5.28,4.86,15,8.82c2.83,1.11,5.69,2.19,8.55,3.27,12,4.51,21.25,8.89,27.4,13.33s10.28,10,9.92,16.83c-.39,8-8.3,14.91-19.91,20.45A85.46,85.46,0,0,1,35.9,396.36Z"/><path class="cls-2" d="M103.78,393.46c.66-.52,1.31-1,1.93-1.56l8.2-1.6c5.27-.95,10.57-3.58,13.77-7.6,21.93-27.9-23.16-47.29-18.12-83.19l-12.29-.11c-3.57,0-6.28,1.16-7.8,3.48a30.22,30.22,0,0,0-3.85,9.18,87.34,87.34,0,0,0-1.83,11.09l-1.46,0c-2.91-8.38-4.75-17.43-3.4-27.61,28.38.2,56.55.28,84.69.28-5.31,10.85-4.35,20-.62,28.12h-1.31A49.81,49.81,0,0,1,154,312.81c-1.83-3.81-2.9-7-3.88-9.45s-3-3.69-6.61-3.69l-12.2,0c-8.49,36.35,42.68,54.42,20,82.73-3.3,4.07-4.55,6.72-1.51,7.64,1.43.52,2.82,1.05,4.18,1.58-.71.55-1.44,1.1-2.21,1.66Q128,393.36,103.78,393.46Z"/><path class="cls-2" d="M220.07,396.23c-7.64,0-11.87-1.73-13.87-4.87s-1.33-7.89-1.53-13.66a40.39,40.39,0,0,0-6.1-21C190,342,169.78,328.26,173,308.1c.73-4.45.44-7.65-2.63-9.19l-2.63-1.16c.31-.65.64-1.31,1-2q20.26,0,40.55-.06c-.51.65-1,1.3-1.44,1.94l-5.2,1.55a12.66,12.66,0,0,0-9.13,9.08c-5.15,21.23,18.81,35.06,27,51.09,4.23,8.05,4.44,14.66,5.79,19.2s4.15,7.07,11.27,7a34.36,34.36,0,0,0,21.33-8c5.82-5.09,7.62-11.79,2.85-19.38-10-16.22-33.56-29.54-24.92-49.75.94-2.21,1.85-4.24,2.52-6.06s.48-3.07-.94-3.68l-2.68-1.09c.54-.63,1.11-1.27,1.72-1.91l20.61-.08c-.67.62-1.3,1.24-1.9,1.86l-5.14,1.31a13.64,13.64,0,0,0-6.4,3.44,19.37,19.37,0,0,0-4.39,6c-9.08,20.13,14.22,33.43,24.42,49.6,4.12,6.45,4.12,12.64,0,18.45S253,387,244.41,390.64,227,396.24,220.07,396.23Z"/><path class="cls-2" d="M270.64,392.66c.58-.65,1.13-1.28,1.65-1.92,1.44-.51,2.85-1,4.23-1.52,4.27-1.62,8-4.81,9.5-9.11,10.13-29.48-42.32-44.38-26.55-72.66,2.45-4.33,3.93-7.36,2-8.65-.56-.48-1.11-.95-1.65-1.44.61-.61,1.25-1.22,1.92-1.85l39.12-.19c10.62-.07,16.26,2.28,19.49,6.42s4.71,9.7,8,16.3,8.29,14,14.8,22.95c6.65,9.08,11.13,17.38,10,25-.91,7.59-6.78,14.21-15.74,19a66.6,66.6,0,0,1-30.79,7.52Q288.7,392.6,270.64,392.66Zm32.31-4,6.16,0a33.36,33.36,0,0,0,18.57-5.36c5-3.46,8.71-9.12,8.15-16.06-.28-7-5.92-15.64-14.24-25.67s-12.28-17.88-13.21-24.14c-1.15-6.2-.3-11.09-1.78-14.08s-5-4.6-11.91-4.53l-6.92.07C249.7,334.83,325.91,349.56,303,388.7Z"/><path class="cls-2" d="M362,392.54c.25-.66.48-1.32.69-2l3.34-1.54a8.77,8.77,0,0,0,4.52-3.57,11.28,11.28,0,0,0,1.25-5.78c-.79-30.6-41.75-48-20.74-73.9a47,47,0,0,0,3.67-4.86,1.92,1.92,0,0,0-.67-3c-.49-.42-1-.84-1.41-1.27.71-.55,1.44-1.09,2.2-1.65q19.44-.09,39.16-.18c-.68.53-1.33,1-2,1.57l-4.59,1.27a25.9,25.9,0,0,0-7.36,2.95,21.94,21.94,0,0,0-5.4,4.8c-20.26,25.57,15.64,44,18.17,74.45a21.68,21.68,0,0,0,1,5.66,7.34,7.34,0,0,0,3.47,3.66l2.7,1.54c-.1.63-.21,1.27-.34,1.92Q380.85,392.58,362,392.54Z"/><path class="cls-2" d="M449.78,396.27a37.27,37.27,0,0,1-17.19-4.12c-5.4-2.73-10.11-6.81-15-11.9s-9.71-11.15-15.16-17.77-11.18-13.82-15.39-21.62-4.87-14.31-1.67-20.22,9.58-11,17.51-15.29a126.45,126.45,0,0,1,25-9.94c8.26-2.31,15.34-3.47,21.35-3.47a37.19,37.19,0,0,1,15.84,3.23A51.66,51.66,0,0,1,479,304.82a61.91,61.91,0,0,1,12.5,16.31,48.37,48.37,0,0,1,5.38,23,55.59,55.59,0,0,1-4.39,22.27,51.29,51.29,0,0,1-10.36,15.94,46.61,46.61,0,0,1-14.66,10.17A43.9,43.9,0,0,1,449.78,396.27Zm.18-3.75c5.44.06,9.9-1.62,13.08-4.81s5.16-8.56,5.58-15.85-.77-17.07-2.66-29.18-2.86-21.64-3.72-28.57-1.86-11.85-4.12-14.76S452.37,295,446.59,295a41.77,41.77,0,0,0-17.84,4.48c-6.05,2.94-12.76,7.92-16.55,14.6s-4.46,15.53.47,27.08,10.69,21.23,14.27,28.88c3.79,7.62,6.61,13.57,10.05,17.08A17.33,17.33,0,0,0,450,392.52Z"/></svg>