<svg width="400" height="400" viewBox="0 0 400 400" fill="none" xmlns="http://www.w3.org/2000/svg">
<path fill-rule="evenodd" clip-rule="evenodd" d="M185.046 61.134C178.025 61.5342 173.538 62.2246 170.16 63.4248L167.676 64.3072L164.496 64.1885C151.675 63.7094 141.616 68.0309 131.238 78.4764C125.152 84.6012 125.311 84.4994 112.39 90.5984C94.8996 98.8545 84.4844 107.89 79.5045 119.128C76.0471 126.93 74.6248 134.205 75.2324 140.981C75.3404 142.186 75.3326 144.319 75.2119 146.547C74.951 151.369 75.2549 157.045 76.2422 165.786C77.6307 178.078 77.7731 183.6 76.8539 189.502C76.3547 192.708 73.0945 209.023 72.441 211.587C71.4221 215.582 71.2678 220.694 72.0496 224.55C73.2236 230.341 77.3404 240.268 81.5365 247.426C85.7383 254.595 86.5652 255.636 100.374 271.157C105.581 277.009 107.323 279.274 108.753 282.051C111.239 286.878 111.11 294.606 108.389 303.774C107.704 306.084 107.044 308.354 106.922 308.82C105.985 312.415 105.863 316.292 106.599 319.064C107.152 321.143 107.596 323.477 107.464 323.609C107.414 323.659 105.81 324.186 103.899 324.782C90.1756 329.059 80.291 334.489 75.576 340.342C71.0227 345.993 66.5787 358.038 64.4586 370.473C63.2756 377.412 62.0102 391.61 62 398.061C61.9992 398.48 62.0717 398.501 63.5529 398.501H65.1065L65.2121 397.866C65.2703 397.517 65.4516 395.034 65.6148 392.348C66.5877 376.35 68.9035 362.233 71.2002 358.303C71.6033 357.613 72.4277 355.881 73.0322 354.454C75.8172 347.879 82.5014 341.276 91.4361 336.273C98.1025 332.54 109.137 327.285 109.9 327.479C110.088 327.527 110.318 327.431 110.41 327.267C110.665 326.81 112.655 326.034 117.273 324.588C145.729 315.682 159.311 305.81 162.975 291.372C164.038 287.185 164.931 278.39 164.617 275.205L164.486 273.876L165.465 274.262C180.798 280.306 221.79 272.792 233.431 261.804C234.472 260.82 234.44 260.743 234.668 264.734C236.462 296.16 243.763 303.656 281.433 312.751C294.43 315.889 323.036 323.127 324.499 323.648C325.09 323.859 326.518 324.395 327.673 324.839C328.828 325.284 330.454 325.828 331.287 326.049C348.099 330.517 354.798 344.538 361.103 388.453C361.69 392.542 362.273 396.475 362.398 397.194L362.625 398.501H364.367C366.073 398.501 366.106 398.492 366.007 398.061C365.951 397.819 365.552 394.985 365.12 391.762C363.654 380.814 363.349 378.68 362.673 374.609C361.337 366.562 359.424 357.624 357.865 352.132C357.434 350.618 357.053 349.248 357.017 349.086C356.982 348.925 356.808 348.266 356.632 347.622C356.457 346.977 356.144 345.805 355.937 345.018C355.722 344.198 355.345 343.329 355.056 342.984C354.777 342.654 354.15 341.584 353.661 340.608C352.32 337.927 351.331 336.274 349.955 334.41C349.209 333.398 348.589 332.316 348.409 331.711C348.244 331.155 347.592 329.605 346.959 328.268C346.327 326.93 345.628 325.174 345.407 324.367C344.72 321.863 343.556 319.824 339.689 314.352C335.402 308.283 334.368 305.233 333.49 296.059C332.425 284.939 330.763 280.301 325.591 274.014C322.261 269.967 322.481 270.457 320.063 261.684C319.087 258.141 319.235 255.778 320.994 246.803C323.381 234.619 323.781 229.699 322.834 224.147C322.08 219.726 319.931 213.871 318.138 211.354C317.779 210.85 317.211 209.895 316.876 209.23C315.172 205.854 312.283 201.654 306.14 193.618C293.297 176.818 290.62 170.947 286.808 151.235C282.948 131.277 281.681 126.141 278.858 119.014C269.738 95.9931 249.44 78.3799 219.03 67.0996C205.593 62.115 196.339 60.4904 185.046 61.134ZM197.13 65.2123C218.341 68.3344 246.1 82.44 259.79 97.0523C272.715 110.848 276.562 119.661 281.822 147.524C286.437 171.973 289.083 178.36 301.315 194.567C303.475 197.429 306.035 200.825 307.003 202.114C316.896 215.287 318.885 223.211 316.513 240.004C315.375 248.063 315.398 247.913 314.821 251.137C314.146 254.913 314.057 259.245 314.602 261.782C314.798 262.695 315.095 264.101 315.261 264.907C316.1 268.976 317.786 272.457 321.431 277.646C322.014 278.476 322.531 279.115 322.579 279.066C322.779 278.867 324.895 282.377 325.461 283.845C326.668 286.974 327.599 291.779 328.112 297.524C328.956 306.973 330.703 311.679 336.124 319.106C338.27 322.045 339.782 324.282 339.623 324.282C339.556 324.282 339.246 324.1 338.934 323.878C338.058 323.254 331.864 320.803 328.113 319.595C327.361 319.353 324.875 318.461 322.589 317.613C320.303 316.764 317.579 315.86 316.534 315.603C315.49 315.346 314.284 315.012 313.855 314.86C312.961 314.546 311.45 314.218 309.753 313.971C304.593 313.219 295.595 311.084 295.588 310.61C295.573 309.617 294.854 308.103 293.223 305.629C287.897 297.549 286.864 294.257 286.114 282.973C285.119 268.002 282.986 261.706 274.699 249.282C270.49 242.97 269.324 240.236 267.782 233.053C264.807 219.196 264.689 209.691 267.383 200.844C267.988 198.857 268.643 196.66 268.838 195.962C269.033 195.263 269.412 193.987 269.679 193.125C272.343 184.521 270.778 171.756 266.234 165.037C264.064 161.827 262.608 155.494 262.296 147.915C261.66 132.434 254.797 118.412 249.296 121.356C248.468 121.8 248.974 123.095 251.011 125.747C254.262 129.978 256.702 138.094 257.116 146.059C257.228 148.208 257.405 151.146 257.508 152.588C257.731 155.677 257.872 155.375 256.324 155.117C253.064 154.572 246.589 155.421 243.32 156.822C243.163 156.889 243.181 156.527 243.38 155.59C243.747 153.858 244.227 148.947 244.186 147.329L244.154 146.059L244.044 147.622L243.933 149.184L243.786 147.032C243.241 139.072 241.259 133.36 237.202 128.058C235.048 125.242 231.143 121.487 229.48 120.631C229.05 120.411 228.039 119.874 227.234 119.44C226.428 119.006 224.47 118.116 222.883 117.462C210.839 112.498 207.139 109.335 200.701 98.5006C196.801 91.9383 196.785 91.9144 194.323 89.4252C189.584 84.6314 184.885 82.2746 179.382 81.9307C165.845 81.0848 152.605 87.1268 147.231 96.6023L146.036 98.7084L145.789 98.1129C143.19 91.8365 130.5 93.073 120.346 100.592C107.248 110.29 97.4904 134.462 99.2949 152.741C99.5047 154.867 99.8252 158.1 100.007 159.926C101.194 171.838 99.5885 176.484 89.5928 190.066C79.5664 203.689 76.6354 212.393 78.126 224.117C78.3867 226.168 78.652 227.556 79.6688 232.192C79.9266 233.367 79.4205 232.198 78.9076 230.434C75.8359 219.869 76.4662 207.49 80.6529 196.157C84.4367 185.914 84.8416 181.974 83.4059 169.358C80.0688 140.032 80.708 131.416 87.2443 117.63C92.8578 105.791 97.2049 102.165 117.067 92.7559C125.252 88.8781 128.104 86.9559 132.246 82.5258C142.504 71.5531 149.695 67.5959 161.442 66.4578C164.589 66.1529 164.538 66.1059 163.047 67.9342C161.553 69.766 160.828 71.1834 160.755 72.4141C160.67 73.86 160.857 73.8191 162.701 71.9891C176.393 58.3996 202.731 67.1816 222.293 91.86C223.247 93.0627 225.921 95.7637 228.153 97.7779C230.022 99.4652 230.022 99.032 228.153 94.7896C222.901 82.8748 209.328 70.5744 195.827 65.4949C194.082 64.8383 194.287 64.7939 197.13 65.2123ZM176.257 98.9883C184.899 100.414 198.711 107.358 201.972 111.916C205.127 116.325 210.303 121.376 214.148 123.797C214.631 124.101 217.092 125.529 219.616 126.97C232.94 134.574 234.627 136.343 236.327 144.484C237.231 148.819 236.084 157.536 233.323 167.304C232.612 169.817 232.589 169.976 232.974 169.724C241.4 164.206 252.11 162.103 257.312 164.944C263.211 168.167 265.006 170.866 265.718 177.583C265.827 178.614 266.003 180.117 266.108 180.922C266.678 185.299 266.114 188.125 263.487 194.037C262.884 195.396 262.39 196.599 262.39 196.711C262.39 197.529 257.419 202.58 254.439 204.791C247.959 209.598 243.865 211.113 235.534 211.787C232.515 212.032 231.817 212.144 228.747 212.877C225.378 213.682 226.291 214.189 231.583 214.453C233.804 214.563 234.065 214.613 233.972 214.907C233.489 216.429 232.845 219.475 232.518 221.788C232.301 223.321 232.041 224.859 231.939 225.206C231.37 227.155 230.393 235.639 229.953 242.446C229.565 248.45 229.957 258.437 230.652 260.247C231 261.155 220.057 265.986 211.994 268.484C201.378 271.772 192.486 273.172 182.214 273.171C176.739 273.171 169.158 272.56 168.724 272.083C168.7 272.057 168.764 270.805 168.866 269.301C169.085 266.059 168.82 261.561 168.229 258.498C167.762 256.082 167.559 256.346 170.593 255.437C175.396 253.999 180.683 251.96 185.534 249.676C186.716 249.119 188.298 248.415 189.05 248.112C198.69 244.215 208.513 237.431 212.842 231.679C215.86 227.67 216.481 225.844 214.829 225.844C214.785 225.844 213.98 226.877 213.042 228.139C209.929 232.329 206.095 235.704 201.206 238.56C199.891 239.328 198.069 240.417 197.155 240.981C196.242 241.546 194.353 242.494 192.956 243.09C191.56 243.685 188.615 245.001 186.413 246.013C174.239 251.607 164.708 254.483 150.682 256.793C134.573 259.446 130.004 258.498 123.457 251.146C114.074 240.607 109.008 228.517 108.052 214.38C107.639 208.272 108.063 204.297 110.341 192.934C113.152 178.916 113.774 170.043 112.603 160.716C112.279 158.143 112.038 156.014 112.066 155.986C112.533 155.519 116.6 159.281 117.452 160.969C120.049 166.114 118.895 182.449 115.204 192.783C114.713 194.155 113.995 196.177 113.607 197.275L112.901 199.272L113.251 200.38C113.844 202.264 116.157 204.165 117.854 204.165C118.468 204.165 117.842 202.845 115.981 200.212L115.465 199.482L115.909 198.259C116.153 197.586 116.912 195.834 117.597 194.365C119.436 190.417 120.044 187.452 121.073 177.407C121.714 171.151 121.62 158.184 120.923 156.704C119.936 154.608 118.08 153.427 113.833 152.194L111.663 151.563L111.414 149.675C111.168 147.819 111.231 143.233 111.515 142.315C111.618 141.982 111.855 141.863 112.624 141.757C114.17 141.544 114.465 140.644 114.366 136.44L114.333 135.024H113.579H112.826L113.602 132.729C118.89 117.1 133.112 105.608 143.895 108.251C145.027 108.529 145.03 108.528 145.555 108.005C146.115 107.447 148.472 105.458 149.826 104.402C152.542 102.282 161.813 99.2285 167.37 98.623C168.885 98.4582 174.424 98.6859 176.257 98.9883ZM233.679 122.988C233.679 123.029 233.833 123.183 234.021 123.33C234.331 123.573 234.337 123.566 234.095 123.256C233.839 122.931 233.679 122.828 233.679 122.988ZM143.867 132.521C144.026 132.77 144.589 133.717 145.118 134.627C147.729 139.11 149.594 139.445 174.597 139.91C185.281 140.109 184.822 140.039 191.359 142.481C193.058 143.116 195.388 143.845 196.535 144.101C199.065 144.666 203.548 145.426 203.818 145.336C203.926 145.3 202.669 144.452 201.024 143.452C199.38 142.452 196.145 140.485 193.835 139.08C188.766 135.997 186.342 134.727 184.988 134.447C181.696 133.765 163.964 132.56 154.773 132.393C151.496 132.334 147.637 132.237 146.197 132.177L143.579 132.07L143.867 132.521ZM242.383 134.3C242.456 134.493 242.565 134.601 242.626 134.541C242.686 134.481 242.626 134.323 242.492 134.191C242.299 133.999 242.277 134.022 242.383 134.3ZM243.873 145.083C243.877 145.405 243.921 145.513 243.971 145.323C244.02 145.133 244.017 144.869 243.963 144.737C243.91 144.605 243.869 144.76 243.873 145.083ZM169.43 148.262C168.844 148.66 167.881 149.45 167.289 150.019C166.418 150.855 166.118 151.033 165.717 150.951C160.125 149.802 151.91 150.309 148.167 152.033C147.488 152.346 146.865 152.602 146.781 152.602C146.389 152.602 145.984 153.379 145.984 154.131C145.984 155.127 145.974 155.126 148.554 154.36C152.024 153.329 151.938 153.228 151.065 157.29C149.944 162.506 151.444 167.451 154.87 169.827C157.392 171.576 160.633 171.266 162.927 169.057C163.903 168.118 163.895 168.154 163.269 167.41C162.538 166.542 162.586 165.327 163.381 164.531C164.222 163.691 164.84 163.566 165.929 164.017C166.323 164.18 166.388 164.017 166.895 161.569C167.205 160.072 167.281 159.081 167.235 157.131L167.175 154.62L168.347 154.977C168.991 155.173 169.678 155.334 169.873 155.335C170.067 155.336 170.99 155.545 171.923 155.799C174.612 156.532 178.674 157.289 179.919 157.289L180.749 157.29V158.367C180.749 158.959 180.519 160.387 180.237 161.54C179.955 162.694 179.692 163.883 179.654 164.183C179.615 164.483 179.368 165.274 179.105 165.941C177.707 169.482 177.166 172.532 177.938 172.517C178.771 172.5 181.335 169.28 181.335 168.251C181.335 168.071 181.454 167.75 181.599 167.538C182.257 166.577 183.29 161.089 183.289 158.554L183.288 157.182L184.024 157.252C186.164 157.456 190.07 156.064 192.103 154.373C193.717 153.03 195.593 151.168 195.593 150.91C195.593 150.438 194.894 150.637 193.761 151.43C193.148 151.86 192.496 152.213 192.313 152.214C192.13 152.215 191.43 152.389 190.758 152.6C189.586 152.967 187.22 153.392 184.768 153.677L183.612 153.811L184.24 153.06C186.755 150.053 186.963 149.636 185.681 150.165C184.561 150.627 182.73 151.785 181.465 152.831C180.838 153.35 180.128 153.774 179.888 153.774C179.297 153.774 175.411 153.188 175.306 153.083C175.26 153.037 175.894 152.353 176.716 151.562C178.027 150.302 178.485 149.672 178.092 149.672C177.772 149.672 174.677 151.245 173.925 151.79C172.957 152.491 172.876 152.491 169.994 151.775L168.322 151.36L169.311 150.043C171.32 147.367 171.347 146.962 169.43 148.262ZM250.452 174.249C239.767 181.244 232.411 194.71 234.772 202.952C235.157 204.295 237.222 200.243 238.086 196.45C239.396 190.701 245.917 179.351 247.905 179.361C248.198 179.362 249.183 182.237 249.594 184.29C250.388 188.25 251.212 189.349 251.748 187.16C252.404 184.487 251.915 181.723 250.291 178.917L249.522 177.59L251.464 175.903C253.346 174.268 253.739 173.67 253.097 173.424C252.417 173.163 251.831 173.346 250.452 174.249ZM179.855 184.33C177.75 184.874 176.217 185.609 175.731 186.308C175.537 186.586 175.128 187.114 174.822 187.48C172.957 189.714 173.409 193.502 175.679 194.652C182.571 198.143 195.517 193.554 193.18 188.448C191.683 185.179 184.8 183.051 179.855 184.33ZM283.581 188.808C283.21 189.079 283.184 189.397 283.063 195.213C282.993 198.579 282.837 203.2 282.717 205.483C282.109 217.009 283.654 224.287 288.716 233.754C292.563 240.948 293.389 242.549 294.619 245.201C298.248 253.022 299.633 258.032 300.475 266.372C301.157 273.124 301.324 274.071 303.139 281.508C304.901 288.723 305.037 288.764 305.741 282.29C306.408 276.154 306.446 273.596 305.958 267.641C304.876 254.452 302.932 248.632 294.671 233.852C287.931 221.793 287.154 218.669 286.808 202.226C286.545 189.72 285.915 187.102 283.581 188.808ZM91.7604 195.717C87.7399 212.717 92.6744 229.809 109.227 256.215C118.202 270.535 121.072 286.945 117.474 303.383C117.063 305.263 116.58 307.722 116.402 308.848C115.887 312.108 111.718 321.293 110.965 320.828C110.165 320.334 111.183 313.77 113.163 306.647C116.386 295.056 116.517 290.76 113.92 281.745C111.532 273.457 107.731 267.278 99.8973 258.95C90.4022 248.855 83.7375 234.19 83.166 222.133C82.7645 213.656 84.9049 206.61 91.1318 195.913C92.0643 194.311 92.0953 194.301 91.7604 195.717ZM262.371 201.726C257.624 218.673 260.733 238.062 270.631 253.24C277.931 264.432 279.514 269.331 280.555 283.95C281.371 295.398 282.809 300.025 287.979 307.839L289.311 309.853L288.692 309.722C287.911 309.557 287.653 309.401 282.214 305.803C272.192 299.174 267.465 294.405 264.036 287.465C261.208 281.744 261.13 279.368 263.456 269.996C266.809 256.49 265.232 248.654 256.721 236.511C249.207 225.792 248.232 220.961 251.848 212.368C252.188 211.562 252.612 210.454 252.792 209.906C253.092 208.988 253.281 208.787 255.166 207.385C256.293 206.547 258.445 204.619 259.948 203.099C263.148 199.867 262.844 200.04 262.371 201.726ZM133.263 203.26C131.298 203.841 128.41 205.172 128.407 205.496C128.396 207.078 131.002 206.398 133.923 204.056C135.61 202.704 135.518 202.592 133.263 203.26ZM127.331 223.797C123.573 224.323 119.743 225.36 119.155 226.01C118.483 226.752 118.801 228.375 119.563 228.096C122.02 227.197 128.135 226.59 134.263 226.637C140.685 226.687 144.777 226.04 143.58 225.164C141.696 223.786 132.769 223.036 127.331 223.797ZM133.288 233.375C131.942 233.664 130.554 234.207 130.554 234.445C130.554 235.176 135.236 234.809 135.949 234.021C136.771 233.112 135.71 232.854 133.288 233.375ZM199.76 243.938C190.879 249.326 190.902 249.315 179.382 254.176C176.535 255.377 173.459 256.665 172.546 257.038C170.196 257.998 170.188 258.008 170.546 259.494C170.749 260.335 170.853 261.996 170.886 264.907C170.94 269.746 171.301 270.961 172.68 270.961C174.08 270.961 180.463 264.861 181.533 262.5C182.188 261.054 184.19 259.921 186.938 259.441C190.905 258.748 192.715 257.506 197.603 252.122C204.068 244.999 205.659 242.835 205.079 241.951C204.557 241.153 204.017 241.355 199.76 243.938ZM230.184 267.44C228.977 268.705 225.515 270.555 223.034 271.261C221.513 271.694 221.374 271.824 221.374 272.819C221.374 275.445 224.339 281.897 227.786 286.772C229.434 289.103 237.646 298.055 238.902 298.891C239.306 299.159 239.752 299.489 239.894 299.623C240.625 300.315 241.006 299.395 240.427 298.335C240.271 298.05 239.924 297.026 239.656 296.059C239.388 295.092 238.428 292.719 237.523 290.786C233.945 283.141 233.061 280.207 232.106 272.817C231.884 271.098 231.72 269.077 231.741 268.325C231.812 265.808 231.767 265.782 230.184 267.44ZM320.795 283.488C320.791 283.556 320.917 283.908 321.074 284.269C321.231 284.631 321.359 284.795 321.36 284.633C321.36 284.352 320.809 283.234 320.795 283.488ZM153.21 308.343C153.21 308.385 153.347 308.472 153.513 308.536C153.687 308.603 153.765 308.57 153.697 308.459C153.582 308.274 153.21 308.185 153.21 308.343Z" fill="#4036ED"/>
<rect x="2" y="2" width="396" height="396" stroke="#4036ED" stroke-width="4"/>
</svg>
