<svg width="400" height="400" viewBox="0 0 400 400" fill="none" xmlns="http://www.w3.org/2000/svg">
<rect x="2" y="2" width="396" height="396" stroke="#4036ED" stroke-width="4"/>
<path fill-rule="evenodd" clip-rule="evenodd" d="M189.323 62.134C182.285 62.5342 177.788 63.2246 174.403 64.4248L171.914 65.3072L168.726 65.1885C155.877 64.7094 145.795 69.0309 135.393 79.4764C129.294 85.6012 129.453 85.4994 116.503 91.5984C98.9735 99.8545 88.5349 108.89 83.5438 120.128C80.0786 127.93 78.6532 135.205 79.2622 141.981C79.3704 143.186 79.3626 145.319 79.2416 147.547C78.9801 152.369 79.2847 158.045 80.2742 166.786C81.6658 179.078 81.8085 184.6 80.8873 190.502C80.387 193.708 77.1195 210.023 76.4645 212.587C75.4433 216.582 75.2886 221.694 76.0722 225.55C77.2489 231.341 81.3749 241.268 85.5804 248.426C89.7916 255.595 90.6204 256.636 104.46 272.157C109.679 278.009 111.425 280.274 112.858 283.051C115.35 287.878 115.22 295.606 112.494 304.774C111.807 307.084 111.145 309.354 111.023 309.82C110.084 313.415 109.962 317.292 110.7 320.064C111.253 322.143 111.698 324.477 111.566 324.609C111.516 324.659 109.908 325.186 107.993 325.782C94.2389 330.059 84.3321 335.489 79.6065 341.342C75.0429 346.993 70.589 359.038 68.4641 371.473C67.2785 378.412 66.0102 392.61 66 399.061C65.9992 399.48 66.0718 399.501 67.5564 399.501H69.1134L69.2193 398.866C69.2777 398.517 69.4593 396.034 69.623 393.348C70.598 377.35 72.919 363.233 75.2209 359.303C75.6249 358.613 76.4512 356.881 77.057 355.454C79.8482 348.879 86.5474 342.276 95.5023 337.273C102.184 333.54 113.243 328.285 114.008 328.479C114.196 328.527 114.426 328.431 114.519 328.267C114.775 327.81 116.769 327.034 121.397 325.588C149.917 316.682 163.53 306.81 167.202 292.372C168.267 288.185 169.162 279.39 168.848 276.205L168.717 274.876L169.698 275.262C185.065 281.306 226.149 273.792 237.816 262.804C238.86 261.82 238.828 261.743 239.056 265.734C240.854 297.16 248.171 304.656 285.926 313.751C298.953 316.889 327.623 324.127 329.089 324.648C329.681 324.859 331.113 325.395 332.27 325.839C333.428 326.284 335.058 326.828 335.892 327.049C352.742 331.517 359.456 345.538 365.775 389.453C366.363 393.542 366.947 397.475 367.073 398.194L367.301 399.501H369.046C370.756 399.501 370.789 399.492 370.69 399.061C370.634 398.819 370.234 395.985 369.801 392.762C368.332 381.814 368.026 379.68 367.349 375.609C366.009 367.562 364.093 358.624 362.529 353.132C362.098 351.618 361.716 350.248 361.68 350.086C361.644 349.925 361.471 349.266 361.295 348.622C361.118 347.977 360.805 346.805 360.598 346.018C360.382 345.198 360.005 344.329 359.714 343.984C359.435 343.654 358.807 342.584 358.317 341.608C356.972 338.927 355.981 337.274 354.602 335.41C353.854 334.398 353.233 333.316 353.053 332.711C352.887 332.155 352.233 330.605 351.6 329.268C350.966 327.93 350.266 326.174 350.044 325.367C349.355 322.863 348.188 320.824 344.313 315.352C340.016 309.283 338.98 306.233 338.1 297.059C337.033 285.939 335.367 281.301 330.184 275.014C326.846 270.967 327.066 271.457 324.643 262.684C323.665 259.141 323.813 256.778 325.576 247.803C327.968 235.619 328.369 230.699 327.42 225.147C326.664 220.726 324.51 214.871 322.714 212.354C322.354 211.85 321.785 210.895 321.449 210.23C319.741 206.854 316.846 202.654 310.689 194.618C297.817 177.818 295.133 171.947 291.313 152.235C287.445 132.277 286.175 127.141 283.345 120.014C274.205 96.9931 253.861 79.3799 223.383 68.0996C209.916 63.115 200.641 61.4904 189.323 62.134ZM203.64 66.5775C225.269 70.591 250.997 83.9545 264.235 98.0523C277.189 111.848 281.044 120.661 286.316 148.524C290.941 172.973 293.594 179.36 305.853 195.567C308.018 198.429 310.583 201.825 311.553 203.114C321.469 216.287 323.462 224.211 321.085 241.004C319.945 249.063 319.967 248.913 319.389 252.137C318.713 255.913 318.623 260.245 319.17 262.782C319.367 263.695 319.664 265.101 319.83 265.907C320.671 269.976 322.36 273.457 326.013 278.646C326.598 279.476 327.116 280.115 327.165 280.066C327.365 279.867 329.486 283.377 330.053 284.845C331.263 287.974 332.196 292.779 332.71 298.524C333.556 307.973 335.307 312.679 340.74 320.106C342.89 323.045 344.406 325.282 344.247 325.282C344.18 325.282 343.869 325.1 343.557 324.878C342.679 324.254 336.471 321.803 332.711 320.595C331.957 320.353 329.466 319.461 327.175 318.613C324.884 317.764 322.153 316.86 321.106 316.603C320.06 316.346 318.851 316.012 318.421 315.86C317.525 315.546 316.01 315.218 314.31 314.971C309.138 314.219 300.12 312.084 300.113 311.61C300.097 310.617 299.377 309.103 297.743 306.629C292.405 298.549 291.369 295.257 290.618 283.973C289.621 269.002 287.483 262.706 279.177 250.282C274.958 243.97 273.79 241.236 272.245 234.053C270.523 226.05 270.165 222.869 270.876 221.864C271.104 221.542 271.625 220.663 272.034 219.911C272.444 219.159 272.984 218.272 273.235 217.939C273.486 217.607 273.691 217.233 273.691 217.109C273.691 216.985 273.78 216.883 273.887 216.883C273.995 216.883 274.083 216.752 274.083 216.59C274.083 216.429 274.171 216.297 274.279 216.297C274.386 216.297 274.474 216.122 274.474 215.907C274.474 215.692 274.563 215.516 274.67 215.516C274.778 215.516 274.866 215.394 274.866 215.245C274.866 215.097 274.998 214.723 275.158 214.415C275.319 214.108 275.451 213.702 275.452 213.514C275.453 213.326 275.534 213.172 275.634 213.172C275.733 213.172 275.875 212.887 275.95 212.538C276.024 212.189 276.157 211.814 276.244 211.705C276.332 211.596 276.511 211.069 276.642 210.533C276.773 209.997 276.987 209.339 277.118 209.071C278.049 207.153 278.217 205.578 278.001 200.828C277.582 191.669 276.804 189.103 272.444 182.528C265.577 172.173 264.676 168.802 266.484 160.243C267.202 156.845 267.229 156.171 266.881 150.379C266.228 139.506 265.273 135.337 261.917 128.7C259.097 123.123 253.476 118.015 249.274 117.211C248.128 116.991 247.598 117.547 248.488 118.035C249.409 118.539 253.808 124.643 256.174 128.7C256.801 129.774 257.572 131.032 257.887 131.496C258.202 131.96 258.929 133.718 259.503 135.403C260.076 137.087 260.855 139.311 261.234 140.344C263.503 146.537 264.308 154.971 263.161 160.536C262.114 165.612 262.795 173.652 264.686 178.553C264.986 179.332 265.209 179.969 265.18 179.969C265.152 179.969 264.743 179.802 264.271 179.598C263.327 179.188 258.381 178.299 255.896 178.092C255.025 178.019 254.312 177.926 254.312 177.884C254.312 177.842 254.542 177.355 254.823 176.802C255.104 176.249 255.629 175.033 255.99 174.101C256.351 173.168 257.358 170.93 258.227 169.129C260.768 163.865 261.3 160.974 260.728 155.555C260.575 154.105 260.467 152.567 260.488 152.137C260.51 151.708 260.459 151.224 260.375 151.063C260.292 150.902 260.18 150.506 260.126 150.184C260.029 149.602 259.16 146.829 258.841 146.083C258.347 144.927 256.934 142.167 256.808 142.111C256.727 142.075 256.661 141.909 256.661 141.741C256.661 141.573 256.353 141.06 255.976 140.601C255.599 140.142 255.291 139.688 255.291 139.591C255.291 139.494 254.998 139.069 254.64 138.647C254.282 138.225 253.822 137.594 253.619 137.245C253.415 136.895 253.178 136.61 253.091 136.61C253.004 136.61 252.466 136.148 251.896 135.585C250.312 134.02 249.472 133.29 249.256 133.29C249.148 133.29 249.03 133.221 248.994 133.137C248.913 132.946 246.557 131.141 246.39 131.141C246.322 131.141 246.064 130.921 245.814 130.653C245.565 130.384 245.282 130.164 245.187 130.163C245.092 130.163 244.554 129.745 243.992 129.236C243.43 128.726 242.555 127.958 242.047 127.528C240.58 126.286 237.359 122.974 236.757 122.088C236.454 121.642 236.096 121.208 235.961 121.122C235.826 121.036 235.716 120.884 235.716 120.784C235.716 120.684 235.429 120.137 235.08 119.568C234.73 118.999 234.337 118.36 234.206 118.148C233.798 117.483 232.934 115.658 232.682 114.93C232.663 114.877 232.592 114.701 232.524 114.54C232.26 113.914 231.368 111.101 231.317 110.731C231.288 110.516 231.241 110.319 231.214 110.292C231.187 110.265 231.146 110.177 231.124 110.096C231.102 110.016 231.013 109.686 230.926 109.364C230.839 109.042 230.715 108.69 230.651 108.583C230.587 108.475 230.526 108.343 230.515 108.29C230.505 108.236 230.432 107.967 230.354 107.692C230.275 107.417 230.186 107.066 230.155 106.911C230.123 106.756 230.045 106.498 229.98 106.337C229.915 106.175 229.755 105.648 229.624 105.165C229.493 104.681 229.362 104.198 229.332 104.09C229.303 103.983 229.224 103.675 229.158 103.407C228.979 102.684 228.945 102.579 228.699 101.978C228.575 101.676 228.473 101.341 228.473 101.234C228.473 101.128 228.254 100.649 227.986 100.171C227.719 99.6932 227.488 99.2367 227.474 99.1572C227.423 98.8816 227.095 98.2287 226.714 97.6451C226.503 97.3228 226.161 96.7516 225.953 96.3756C225.745 95.9996 225.412 95.4924 225.213 95.2482C225.014 95.0043 224.323 94.1527 223.677 93.3562C223.031 92.5596 222.347 91.8519 222.157 91.7838C221.967 91.7156 221.856 91.5881 221.911 91.5C221.965 91.4121 221.812 91.2098 221.571 91.0502C221.33 90.8908 220.795 90.4416 220.384 90.0519C219.683 89.3891 217.439 87.9492 216.336 87.4551C214.862 86.7943 214.397 86.61 214.207 86.61C214.09 86.61 213.443 86.4398 212.768 86.232C207.571 84.6322 200.67 84.0971 195.978 84.9297C195.709 84.9773 194.828 85.1191 194.021 85.2445C188.358 86.124 183.5 88.2443 179.241 91.6955L177.87 92.8062L176.892 92.1445C169.058 86.8447 163.411 85.3807 155.262 86.5367C143.786 88.1646 135.628 91.8418 128.038 98.8082C127.331 99.4576 125.879 100.604 124.813 101.356C111.645 110.64 101.554 135.301 103.379 153.741C103.589 155.867 103.91 159.1 104.093 160.926C105.282 172.838 103.673 177.484 93.6548 191.066C83.6059 204.689 80.6682 213.393 82.1622 225.117C82.4235 227.168 82.6894 228.556 83.7085 233.192C83.9669 234.367 83.4597 233.198 82.9456 231.434C79.867 220.869 80.4987 208.49 84.6949 197.157C88.4871 186.914 88.8929 182.974 87.454 170.358C84.1094 141.032 84.7501 132.416 91.3011 118.63C96.9272 106.791 101.284 103.165 121.19 93.7559C129.394 89.8781 132.253 87.9559 136.404 83.5258C146.685 72.5531 153.892 68.5959 165.665 67.4578C168.819 67.1529 168.768 67.1059 167.274 68.9342C165.776 70.766 165.05 72.1834 164.977 73.4141C164.892 74.86 165.079 74.8191 166.927 72.9891C171.191 68.7666 175.362 66.918 181.003 66.7496L184.331 66.6506L188.833 67.5555C197.275 69.2523 201.471 70.4863 210.461 73.9158C214.423 75.4273 220.827 77.6504 224.215 78.6906C227.121 79.5826 225.854 78.6988 220.105 75.8228C211.435 71.4863 203.209 68.2756 196.898 66.765C195.406 66.408 194.713 66.1652 194.94 66.0797C195.732 65.7826 200.971 66.0822 203.64 66.5775ZM218.49 79.1055C218.49 79.2373 219.506 79.6059 219.603 79.5092C219.648 79.4648 219.415 79.3351 219.087 79.2209C218.758 79.1066 218.49 79.0547 218.49 79.1055ZM228.098 88.8137C228.143 88.8441 228.335 88.9883 228.526 89.1342C228.828 89.3652 228.857 89.358 228.75 89.0789C228.682 88.9027 228.489 88.7584 228.321 88.7584C228.154 88.7584 228.053 88.7832 228.098 88.8137ZM179.144 90.7115C178.967 90.8252 178.943 90.9019 179.083 90.9039C179.211 90.9055 179.371 90.8189 179.437 90.7115C179.587 90.4689 179.52 90.4689 179.144 90.7115ZM196.663 99.7799C199.444 100.114 201.733 100.661 204.102 101.557C204.855 101.842 205.67 102.122 205.913 102.178C206.155 102.234 206.353 102.358 206.353 102.453C206.353 102.548 206.482 102.626 206.639 102.626C206.97 102.626 210.999 104.684 211.458 105.088C211.628 105.237 211.87 105.36 211.996 105.36C212.122 105.36 212.226 105.438 212.226 105.532C212.226 105.627 212.38 105.757 212.568 105.82C212.985 105.959 213.536 106.314 214.074 106.789C214.296 106.984 214.764 107.321 215.115 107.538C215.466 107.756 216.123 108.277 216.574 108.697C217.025 109.117 217.553 109.51 217.746 109.572C217.94 109.633 218.098 109.809 218.098 109.963C218.098 110.117 218.164 110.245 218.245 110.247C218.326 110.25 218.732 110.557 219.147 110.931C219.563 111.304 219.981 111.61 220.077 111.61C220.173 111.61 220.231 111.676 220.206 111.756C220.181 111.837 221.106 112.846 222.262 113.999C223.417 115.153 224.362 116.131 224.362 116.174C224.362 116.218 224.869 116.78 225.488 117.425C227.017 119.017 227.571 119.67 227.635 119.96C227.776 120.588 227.977 121.124 228.607 122.545C228.969 123.362 229.792 125.065 230.024 125.477C230.114 125.638 230.38 126.166 230.614 126.649C230.848 127.132 231.188 127.762 231.371 128.048C231.553 128.334 232.001 129.081 232.365 129.708C232.73 130.335 233.265 131.156 233.556 131.532C233.847 131.908 234.14 132.369 234.209 132.557C234.277 132.745 234.424 132.899 234.535 132.899C234.646 132.899 234.737 133.028 234.737 133.185C234.737 133.342 234.913 133.565 235.128 133.68C235.344 133.795 235.52 133.97 235.52 134.069C235.52 134.396 238.544 137.587 238.854 137.587C238.958 137.587 239.043 137.718 239.043 137.879C239.043 138.041 239.123 138.172 239.22 138.172C239.446 138.172 246.372 145.059 248.048 146.949C248.748 147.739 249.519 148.58 249.761 148.819C250.003 149.057 250.201 149.343 250.201 149.453C250.201 149.564 250.333 149.705 250.495 149.767C250.656 149.828 250.789 150.004 250.789 150.157C250.789 150.31 250.922 150.487 251.085 150.549C251.248 150.611 251.47 150.862 251.577 151.107C251.684 151.351 251.942 151.831 252.15 152.174C252.471 152.702 252.639 153.162 253.062 154.676C253.338 155.662 253.396 156.51 253.397 159.579C253.399 162.914 253.111 165.516 252.741 165.516C252.66 165.516 252.532 165.846 252.457 166.249C252.381 166.652 252.151 167.35 251.945 167.8C251.74 168.251 251.572 168.699 251.572 168.796C251.572 168.967 251.143 169.96 250.776 170.64C250.675 170.827 250.593 171.078 250.593 171.198C250.593 171.399 249.65 173.553 249.213 174.351C249.11 174.538 249.027 174.824 249.027 174.986C249.027 175.149 248.939 175.282 248.831 175.282C248.723 175.282 248.635 175.44 248.635 175.633C248.635 175.827 248.556 176.068 248.458 176.17C248.361 176.272 247.846 177.191 247.314 178.212C246.782 179.232 246.157 180.397 245.925 180.799C245.693 181.202 245.332 181.834 245.122 182.203C244.913 182.572 244.516 183.229 244.241 183.664C243.966 184.098 243.742 184.536 243.742 184.637C243.742 184.737 243.631 184.859 243.497 184.907C242.578 185.234 243.735 185.158 244.737 184.826C245.428 184.596 246.169 184.377 246.384 184.339C246.599 184.301 247.426 184.099 248.221 183.89C249.619 183.523 250.04 183.449 252.355 183.167C253.715 183.001 258.402 183.01 259.695 183.182C260.234 183.253 260.894 183.334 261.163 183.362C262.127 183.463 265.47 184.346 265.47 184.5C265.47 184.586 265.611 184.657 265.783 184.657C266.187 184.657 267.42 185.241 267.831 185.627C271.612 189.174 273.153 191.003 273.371 192.201C273.427 192.51 273.518 192.966 273.573 193.215C274.08 195.491 274.04 200.278 273.496 202.43C273.401 202.806 273.279 203.641 273.224 204.286C273.099 205.749 272.179 209.259 271.812 209.672C271.661 209.842 271.538 210.037 271.538 210.106C271.538 210.439 268.557 214.757 267.672 215.704C267.432 215.961 267.185 216.331 267.123 216.527C267.061 216.723 266.941 216.883 266.858 216.883C266.774 216.883 266.406 217.323 266.039 217.861C265.672 218.399 265.226 218.886 265.047 218.943C264.869 219 264.674 219.175 264.613 219.332C264.553 219.489 264.374 219.618 264.215 219.618C264.056 219.618 263.811 219.777 263.67 219.972C263.53 220.168 263.282 220.388 263.121 220.462C262.959 220.536 262.475 220.813 262.044 221.078C256.945 224.212 242.652 227.576 238.343 226.656C237.219 226.416 235.105 226.031 234.541 225.964C230.445 225.475 226.961 225.446 226.842 225.901C226.75 226.252 226.797 226.284 228.571 227.054C229.303 227.373 230.721 227.846 232.192 228.265C233 228.495 233.69 228.753 233.725 228.838C233.762 228.923 233.946 228.993 234.136 228.993C235.014 228.993 235.401 230.24 235.113 232.137C235.008 232.825 234.842 234.925 234.744 236.805C234.646 238.685 234.461 241.717 234.333 243.544C233.935 249.213 234.338 259.446 235.031 261.247C235.38 262.155 224.413 266.986 216.331 269.484C205.691 272.772 196.779 274.172 186.484 274.171C180.997 274.171 173.399 273.56 172.964 273.083C172.94 273.057 173.004 271.805 173.106 270.301C173.325 267.067 173.06 262.562 172.471 259.519C172.256 258.407 172.125 257.426 172.179 257.338C172.233 257.25 172.098 256.707 171.879 256.13C171.659 255.554 171.518 254.881 171.565 254.635C171.628 254.306 171.56 254.188 171.305 254.188C171.036 254.188 170.927 253.96 170.817 253.163C170.74 252.599 170.665 252.102 170.652 252.058C170.626 251.972 170.938 251.914 172.292 251.752C173.779 251.573 175.424 251.309 176.599 251.059C177.083 250.956 177.788 250.824 178.165 250.766C179.603 250.545 182.868 249.833 185.408 249.186C186.861 248.816 189.18 248.252 190.562 247.932C192.23 247.546 194.595 246.755 197.609 245.573C200.103 244.594 202.981 243.49 204.004 243.119C206.306 242.284 207.142 241.798 208.479 240.514C209.057 239.96 210.063 239.114 210.716 238.635C211.368 238.156 212.068 237.57 212.271 237.333C212.475 237.097 212.819 236.696 213.037 236.443C213.519 235.883 213.399 235.194 212.769 234.913C212.327 234.717 210.268 235.972 210.268 236.438C210.268 236.533 210.133 236.61 209.968 236.61C209.803 236.61 209.618 236.742 209.556 236.903C209.494 237.064 209.321 237.196 209.172 237.196C209.023 237.196 208.791 237.372 208.657 237.587C208.522 237.801 208.336 237.977 208.243 237.977C208.149 237.977 207.752 238.219 207.359 238.514C206.966 238.81 206.469 239.158 206.254 239.288C204.885 240.116 204.119 240.516 203.905 240.516C203.771 240.516 203.551 240.648 203.417 240.809C203.283 240.97 203.072 241.102 202.949 241.102C202.826 241.102 202.397 241.278 201.995 241.493C201.593 241.708 201.263 241.829 201.263 241.762C201.263 241.695 201.123 241.757 200.95 241.9C200.778 242.042 200.535 242.176 200.412 242.197C200.288 242.218 199.923 242.338 199.6 242.464C199.277 242.589 198.968 242.693 198.914 242.695C198.861 242.696 198.728 242.766 198.621 242.85C198.513 242.933 198.161 243.071 197.838 243.156C197.515 243.242 197.162 243.337 197.055 243.367C196.947 243.398 196.683 243.47 196.468 243.528C196.252 243.585 195.459 243.812 194.706 244.032C193.42 244.407 192.82 244.575 192.357 244.689C192.068 244.76 190.641 245.216 190.301 245.346C189.849 245.519 189.488 245.595 188.637 245.696C188.207 245.747 187.634 245.837 187.365 245.896C186.848 246.01 186.201 246.111 184.918 246.278C184.488 246.334 183.805 246.457 183.401 246.552C182.997 246.647 182.667 246.687 182.667 246.641C182.667 246.595 182.512 246.64 182.323 246.741C182.134 246.842 181.509 246.977 180.934 247.04C180.36 247.104 179.832 247.191 179.761 247.233C179.691 247.276 179.192 247.367 178.654 247.436C178.116 247.506 177.543 247.598 177.382 247.641C177.22 247.685 176.736 247.775 176.305 247.843C175.874 247.91 175.28 248.003 174.984 248.049C174.688 248.095 174.159 248.18 173.809 248.236C173.459 248.293 172.777 248.378 172.292 248.426C171.808 248.473 171.103 248.562 170.726 248.623C170.349 248.684 169.513 248.769 168.867 248.812C168.221 248.855 167.487 248.936 167.236 248.992C166.249 249.212 160.954 249.384 155.458 249.374C149.514 249.364 146.751 249.243 142.734 248.816C142.142 248.753 141.173 248.663 140.581 248.616C139.988 248.57 139.152 248.49 138.721 248.44C137.021 248.242 135.954 248.112 135.393 248.035C135.07 247.99 134.38 247.907 133.859 247.85C133.339 247.792 132.836 247.698 132.742 247.64C132.648 247.582 132.108 247.489 131.541 247.434C124.593 246.754 114.66 228.71 111.876 211.708C111.425 208.958 111.362 199.562 111.776 196.962C112.06 195.176 112.928 191.715 113.171 191.395C113.253 191.288 113.433 190.716 113.572 190.126C113.71 189.535 113.894 188.92 113.98 188.758C114.262 188.23 114.937 186.564 114.937 186.395C114.937 186.217 115.671 184.56 116.428 183.028C116.684 182.507 116.895 181.958 116.895 181.807C116.895 181.655 116.983 181.532 117.09 181.532C117.198 181.532 117.286 181.356 117.286 181.141C117.286 180.926 117.374 180.751 117.482 180.751C117.59 180.751 117.678 180.638 117.678 180.501C117.678 180.364 118.074 179.47 118.558 178.515C119.043 177.56 119.439 176.662 119.439 176.518C119.439 176.375 119.506 176.258 119.587 176.258C119.669 176.258 119.86 175.973 120.013 175.624C120.166 175.274 120.805 173.912 121.432 172.596C122.058 171.28 122.571 170.072 122.571 169.911C122.571 169.75 122.659 169.618 122.767 169.618C122.875 169.618 122.963 169.497 122.963 169.35C122.963 169.118 123.4 168.017 124.457 165.584C124.604 165.246 124.728 164.85 124.731 164.705C124.735 164.561 124.908 164.09 125.116 163.661C125.324 163.231 125.498 162.748 125.502 162.587C125.506 162.425 125.627 162.07 125.77 161.796C125.913 161.523 126.278 160.292 126.58 159.062C126.882 157.831 127.245 156.596 127.385 156.318C127.525 156.038 127.899 154.764 128.216 153.486C128.811 151.084 129.035 149.802 129.196 147.863C129.253 147.19 134.014 148.742 134.142 149.476C134.392 150.911 133.945 154.147 133.354 155.183C133.257 155.354 132.682 157.403 132.077 159.736C131.472 162.069 130.899 164.127 130.803 164.308C130.393 165.088 130.01 166.087 130.01 166.376C130.01 166.548 129.922 166.688 129.814 166.688C129.707 166.688 129.618 166.785 129.618 166.903C129.618 167.153 129.258 167.999 128.328 169.929C127.961 170.69 127.661 171.415 127.661 171.54C127.661 171.664 127.573 171.766 127.465 171.766C127.358 171.766 127.269 171.942 127.269 172.157C127.269 172.372 127.181 172.547 127.074 172.547C126.966 172.547 126.878 172.723 126.878 172.938C126.878 173.153 126.79 173.329 126.682 173.329C126.574 173.329 126.486 173.504 126.486 173.719C126.486 173.934 126.398 174.11 126.291 174.11C126.183 174.11 126.095 174.242 126.095 174.403C126.095 174.564 126.007 174.696 125.899 174.696C125.791 174.696 125.703 174.872 125.703 175.087C125.703 175.301 125.625 175.477 125.531 175.477C125.435 175.477 125.299 175.631 125.228 175.819C124.986 176.461 124.632 177.04 124.483 177.04C124.4 177.04 124.333 177.171 124.333 177.333C124.333 177.494 124.265 177.626 124.182 177.626C124.099 177.626 123.857 177.955 123.645 178.358C123.434 178.761 123.149 179.161 123.014 179.247C122.878 179.333 122.767 179.49 122.767 179.597C122.767 179.704 122.547 180.028 122.278 180.318C122.009 180.607 121.788 180.946 121.788 181.07C121.788 181.193 121.656 181.345 121.495 181.407C121.333 181.469 121.201 181.654 121.201 181.819C121.201 181.983 121.113 182.118 121.005 182.118C120.898 182.118 120.81 182.25 120.81 182.411C120.81 182.572 120.722 182.704 120.614 182.704C120.506 182.704 120.418 182.872 120.418 183.078C120.418 183.284 120.318 183.486 120.196 183.526C119.8 183.658 119.979 186.01 120.452 186.895C120.684 187.329 120.967 187.872 121.081 188.103C121.195 188.333 121.597 188.684 121.974 188.884C122.351 189.083 122.816 189.401 123.007 189.588C123.692 190.263 124.185 189.871 124.051 188.758C124.018 188.49 123.974 188.27 123.952 188.27C123.93 188.27 123.874 188.061 123.827 187.806C123.779 187.551 123.615 187.067 123.462 186.732C122.507 184.643 122.516 184.513 123.697 183.199C123.832 183.049 123.942 182.833 123.942 182.718C123.942 182.603 124.032 182.508 124.143 182.508C124.255 182.508 124.404 182.354 124.476 182.167C124.62 181.791 124.775 181.586 125.512 180.793C125.784 180.501 126.356 179.823 126.785 179.286C127.213 178.749 127.614 178.265 127.675 178.212C127.737 178.158 127.848 177.982 127.922 177.821C127.996 177.66 128.364 176.957 128.739 176.258C129.114 175.56 129.421 174.879 129.422 174.745C129.422 174.611 129.511 174.501 129.618 174.501C129.726 174.501 129.814 174.368 129.814 174.205C129.814 174.042 129.898 173.757 130.001 173.57C130.103 173.384 130.33 172.879 130.504 172.45C130.848 171.605 131.198 170.781 131.543 170.008C131.795 169.444 132.297 168.044 132.574 167.135C132.679 166.789 132.842 166.459 132.936 166.401C133.031 166.343 133.167 165.944 133.24 165.515C133.313 165.086 133.452 164.735 133.551 164.735C133.649 164.735 133.733 164.581 133.738 164.393C133.743 164.205 133.881 163.7 134.044 163.27C134.208 162.84 134.477 162.005 134.641 161.415C134.805 160.824 135.014 160.251 135.104 160.141C135.287 159.92 136.795 153.922 136.822 153.309C136.831 153.094 137.108 151.908 137.436 150.672C138.143 148.012 138.153 147.798 137.588 147.141C137.114 146.589 135.687 145.479 135.687 145.662C135.687 145.725 135.292 145.607 134.81 145.401C133.772 144.957 131.301 144.422 130.285 144.422H129.565L129.7 142.128C130.017 136.712 132.277 128.189 134.478 124.11C135.295 122.595 137.266 119.547 137.487 119.455C137.574 119.419 137.644 119.287 137.644 119.16C137.644 119.034 137.864 118.693 138.134 118.404C138.403 118.114 138.623 117.805 138.623 117.717C138.623 117.628 138.777 117.423 138.966 117.26C139.154 117.096 139.572 116.633 139.895 116.23C140.528 115.441 144.282 111.61 144.423 111.61C144.47 111.61 144.817 111.302 145.194 110.926C145.571 110.55 145.96 110.243 146.058 110.243C146.157 110.243 146.308 110.13 146.394 109.992C146.48 109.854 146.991 109.392 147.53 108.966C148.068 108.54 148.552 108.138 148.606 108.072C148.66 108.007 149.398 107.479 150.246 106.901C152.448 105.397 152.779 105.183 153.109 105.053C153.27 104.989 154.019 104.64 154.772 104.278C156.29 103.549 157.517 103.016 157.677 103.016C157.734 103.016 158.029 102.917 158.332 102.795C158.635 102.673 159.14 102.54 159.453 102.5C159.766 102.46 160.118 102.358 160.236 102.275C160.353 102.191 160.714 102.095 161.037 102.062C161.36 102.029 161.938 101.894 162.322 101.762C163.913 101.219 169.573 101.806 170.628 102.624C170.736 102.708 171.132 102.841 171.509 102.92C171.886 103 172.415 103.22 172.686 103.411C173.39 103.907 173.901 103.943 174.52 103.538C174.818 103.343 175.231 103.151 175.438 103.111C175.773 103.047 176.525 102.697 177.382 102.207C177.927 101.895 178.653 101.586 178.782 101.611C178.853 101.625 179.017 101.507 179.149 101.35C179.28 101.192 179.538 101.063 179.722 101.063C179.906 101.063 180.118 101.002 180.193 100.927C180.328 100.793 180.487 100.751 181.541 100.57C182.876 100.34 183.199 100.286 183.842 100.184C184.218 100.124 184.741 100.028 185.002 99.9709C185.264 99.9133 186.233 99.8191 187.156 99.7617C188.078 99.7045 188.863 99.6291 188.899 99.5943C188.98 99.5172 195.842 99.6812 196.663 99.7799ZM164.117 132.87C163.871 133.022 164.761 135.047 165.074 135.047C165.168 135.047 165.245 135.216 165.245 135.422C165.245 135.628 165.311 135.825 165.392 135.861C165.473 135.897 165.715 136.277 165.93 136.706C166.695 138.23 168.608 139.623 170.237 139.844C170.345 139.859 170.477 139.891 170.53 139.917C170.697 139.995 171.569 140.129 172.39 140.203C172.821 140.241 173.173 140.296 173.173 140.325C173.173 140.382 173.809 140.439 176.403 140.614C177.318 140.676 178.551 140.767 179.144 140.818C179.736 140.868 180.969 140.947 181.884 140.994C182.799 141.04 184.231 141.128 185.065 141.188C188.722 141.452 189.82 141.507 193.238 141.6C196.873 141.698 201.899 141.87 203.27 141.942C203.674 141.964 204.004 142.036 204.004 142.102C204.004 142.169 204.459 142.284 205.016 142.358C205.572 142.431 206.331 142.618 206.703 142.773C207.075 142.929 207.545 143.055 207.747 143.055C207.949 143.055 208.115 143.143 208.115 143.251C208.115 143.358 208.181 143.431 208.262 143.414C208.531 143.355 209.576 143.702 210.232 144.068C210.588 144.267 210.953 144.385 211.041 144.331C211.13 144.276 211.307 144.357 211.435 144.511C211.562 144.664 211.793 144.742 211.946 144.683C212.1 144.624 212.226 144.662 212.226 144.768C212.226 144.943 213.297 145.292 213.645 145.23C213.725 145.215 213.792 145.282 213.792 145.377C213.792 145.472 214.034 145.597 214.33 145.654C214.626 145.712 216.322 146.105 218.098 146.528C219.875 146.951 221.46 147.305 221.622 147.314C222.001 147.336 222.742 147.456 223.481 147.615C224.229 147.777 224.827 147.446 224.323 147.149C224.14 147.041 223.86 146.823 223.701 146.664C223.542 146.505 223.323 146.376 223.216 146.376C223.108 146.376 222.9 146.266 222.753 146.131C222.392 145.802 221.812 145.438 221.279 145.208C221.037 145.103 220.839 144.928 220.839 144.818C220.839 144.708 220.751 144.618 220.645 144.618C220.453 144.618 216.914 142.495 216.728 142.267C216.674 142.202 216.498 142.087 216.336 142.012C216.175 141.938 215.646 141.617 215.162 141.298C214.677 140.98 214.083 140.632 213.84 140.525C213.598 140.418 213.4 140.24 213.4 140.13C213.4 140.02 213.224 139.93 213.009 139.93C212.793 139.93 212.617 139.84 212.617 139.73C212.617 139.62 212.419 139.445 212.177 139.34C211.711 139.139 211.02 138.73 210.855 138.559C210.582 138.273 209.658 137.782 209.394 137.782C209.229 137.782 209.094 137.7 209.094 137.601C209.094 137.14 205.435 135.77 204.251 135.787C203.795 135.794 203.381 135.734 203.331 135.653C203.281 135.573 202.752 135.523 202.154 135.542C201.557 135.561 201.068 135.508 201.068 135.424C201.068 135.34 200.693 135.271 200.236 135.271C199.232 135.271 195.562 134.91 194.608 134.719C194.231 134.643 193.57 134.565 193.14 134.547C192.709 134.528 192.313 134.49 192.259 134.463C192.205 134.436 191.677 134.391 191.084 134.364C190.492 134.336 189.876 134.266 189.714 134.208C189.346 134.076 186.594 133.868 184.527 133.817C183.665 133.795 182.873 133.723 182.765 133.657C182.657 133.59 181.209 133.519 179.547 133.499C177.885 133.479 176.445 133.413 176.347 133.353C176.249 133.292 174.261 133.213 171.93 133.177C168.097 133.117 166.781 133.048 164.94 132.809C164.611 132.767 164.241 132.794 164.117 132.87ZM259.695 145.204C259.629 145.311 259.668 145.399 259.782 145.399C259.896 145.399 259.989 145.311 259.989 145.204C259.989 145.096 259.95 145.008 259.903 145.008C259.855 145.008 259.762 145.096 259.695 145.204ZM190.513 148.933C190.177 149.067 190.1 149.182 190.249 149.331C190.522 149.603 191.28 149.36 191.28 148.999C191.28 148.679 191.173 148.67 190.513 148.933ZM179.927 153.626C179.218 153.907 177.506 155.011 177.323 155.304C177.237 155.442 177.058 155.555 176.926 155.555C176.794 155.555 176.465 155.797 176.194 156.092C174.947 157.454 175.042 157.428 171.507 157.397C169.732 157.382 167.795 157.447 167.203 157.543C166.611 157.638 165.95 157.742 165.735 157.773C165.307 157.836 164.339 158.192 163.875 158.457C163.413 158.721 163.439 160.329 163.915 160.933C164.298 161.418 164.336 161.425 166.096 161.285C170.476 160.939 174.319 161.287 178.244 162.386C179.092 162.623 179.991 162.855 180.243 162.9C180.494 162.946 180.925 163.069 181.201 163.173C181.476 163.278 181.765 163.35 181.842 163.335C181.919 163.319 182.114 163.355 182.276 163.415C182.437 163.476 183.01 163.63 183.548 163.758C184.086 163.887 184.659 164.039 184.82 164.098C184.982 164.156 185.246 164.224 185.408 164.249C185.569 164.275 186.274 164.405 186.974 164.538C187.673 164.671 188.444 164.779 188.686 164.778C188.929 164.777 189.127 164.842 189.127 164.923C189.127 165.004 189.369 165.076 189.665 165.083C191.166 165.122 191.867 165.19 191.867 165.299C191.867 165.365 192.066 165.427 192.308 165.437C193.682 165.496 195.787 165.691 195.92 165.771C196.091 165.874 202.904 165.775 204.004 165.654C205.367 165.504 207.332 165.054 207.332 164.893C207.332 164.802 207.552 164.783 207.821 164.85C208.123 164.926 208.311 164.889 208.311 164.756C208.311 164.637 208.462 164.54 208.647 164.54C209.11 164.54 210.69 163.944 211.066 163.628C211.236 163.485 211.518 163.368 211.693 163.368C211.868 163.368 212.081 163.251 212.167 163.107C212.253 162.964 212.72 162.652 213.204 162.413C216.352 160.863 215.013 160.404 208.767 160.893C208.534 160.911 208.277 160.992 208.196 161.073C208.116 161.154 207.668 161.219 207.201 161.219C206.735 161.219 206.353 161.295 206.353 161.387C206.353 161.479 206.111 161.556 205.815 161.56C205.518 161.563 203.867 161.606 202.144 161.656C200.422 161.706 198.548 161.694 197.98 161.629L196.947 161.512L197.84 160.536C198.331 159.999 198.972 159.273 199.264 158.924C199.556 158.574 199.994 158.065 200.236 157.792C201.106 156.81 200.164 155.899 199.236 156.825C199.075 156.986 198.809 157.118 198.646 157.118C198.484 157.118 198.302 157.196 198.242 157.293C198.182 157.389 197.759 157.661 197.3 157.897C196.842 158.134 196.171 158.56 195.808 158.845C194.917 159.546 194.216 160 193.633 160.252C193.366 160.368 193.092 160.553 193.024 160.663C192.955 160.773 192.469 160.851 191.943 160.837C191.417 160.822 190.744 160.811 190.448 160.812C190.152 160.812 189.91 160.736 189.91 160.642C189.91 160.548 189.599 160.495 189.22 160.525C188.84 160.555 188.49 160.516 188.441 160.437C188.359 160.304 186.457 159.954 186.149 160.015C186.072 160.03 186.059 159.912 186.121 159.752C186.182 159.592 186.341 159.462 186.474 159.462C186.606 159.462 187.036 159.115 187.429 158.691C187.822 158.268 188.259 157.85 188.4 157.763C188.754 157.546 190.556 155.165 190.367 155.165C190.283 155.165 190.41 155.028 190.649 154.861C191.362 154.362 191.245 153.567 190.497 153.827C190.174 153.939 189.91 154.098 189.91 154.181C189.91 154.263 189.536 154.584 189.078 154.894C188.62 155.204 187.894 155.778 187.463 156.169C186.057 157.445 184.593 158.519 184.323 158.472C184.262 158.462 183.991 158.599 183.719 158.776C183.239 159.09 182 159.142 181.59 158.866C181.483 158.794 181.042 158.672 180.612 158.596C180.181 158.519 179.652 158.417 179.437 158.368C179.222 158.319 178.732 158.23 178.35 158.17L177.654 158.061L178.321 157.345C178.687 156.951 179.129 156.41 179.303 156.141C179.476 155.873 179.839 155.356 180.108 154.993C180.591 154.343 180.869 153.395 180.569 153.419C180.485 153.426 180.196 153.519 179.927 153.626ZM228.962 156.285C224.232 157.861 220.828 160.312 222.487 160.947C223.123 161.191 231.018 156.497 231.018 155.876C231.018 155.659 230.576 155.747 228.962 156.285ZM267.085 164.442C267.087 164.872 267.128 165.024 267.174 164.781C267.221 164.538 267.219 164.187 267.17 164C267.121 163.813 267.083 164.012 267.085 164.442ZM257.591 177.56C257.726 177.614 257.946 177.614 258.08 177.56C258.215 177.505 258.105 177.461 257.836 177.461C257.566 177.461 257.456 177.505 257.591 177.56ZM263.625 177.797C263.564 177.895 263.646 178.026 263.807 178.087C263.968 178.149 264.1 178.119 264.1 178.022C264.1 177.757 263.752 177.592 263.625 177.797ZM208.017 179.963C202.363 180.524 197.797 182.519 198.229 184.238C200.176 191.988 219.937 191.757 220.787 183.975C221.092 181.187 214.994 179.271 208.017 179.963ZM273.025 181.044C273.171 181.663 274.255 183.379 274.405 183.229C274.493 183.141 273.678 181.579 273.162 180.848C272.906 180.485 272.896 180.499 273.025 181.044ZM288.079 189.808C287.707 190.079 287.681 190.397 287.56 196.213C287.489 199.579 287.333 204.2 287.213 206.483C286.604 218.009 288.152 225.287 293.226 234.754C297.081 241.948 297.909 243.549 299.142 246.201C302.778 254.022 304.167 259.032 305.011 267.372C305.695 274.124 305.861 275.071 307.681 282.508C309.447 289.723 309.583 289.764 310.289 283.29C310.958 277.154 310.996 274.596 310.506 268.641C309.422 255.452 307.473 249.632 299.194 234.852C292.439 222.793 291.66 219.669 291.313 203.226C291.049 190.72 290.418 188.102 288.079 189.808ZM138.476 192.603C138.395 192.623 137.845 192.68 137.253 192.73C136.661 192.781 135.956 192.882 135.687 192.957C135.418 193.031 134.861 193.119 134.45 193.152C133.437 193.233 132.981 194.325 133.745 194.838C134.188 195.136 136.994 194.789 138.231 194.283C138.393 194.217 138.569 194.149 138.623 194.131C139.955 193.691 141.271 192.719 140.629 192.648C140.241 192.606 138.605 192.571 138.476 192.603ZM259.793 193.519C259.093 193.749 258.389 194.023 258.227 194.126C258.066 194.229 257.834 194.329 257.713 194.347C257.297 194.411 254.152 195.964 254.025 196.17C253.955 196.283 253.749 196.376 253.566 196.378C253.384 196.379 252.669 196.752 251.977 197.208C251.285 197.663 250.575 198.124 250.399 198.231C249.603 198.717 247.069 200.744 247.069 200.895C247.069 200.987 246.976 201.063 246.863 201.063C246.489 201.063 241.784 205.948 241.784 206.336C241.784 206.42 241.652 206.541 241.49 206.603C241.329 206.664 241.197 206.842 241.197 206.998C241.197 207.153 241.131 207.31 241.05 207.346C240.856 207.432 240.15 208.671 239.4 210.243C239.066 210.941 238.727 211.65 238.646 211.818C238.413 212.3 237.538 215.747 237.484 216.395C237.343 218.084 237.36 218.156 237.874 218.098C238.14 218.068 238.388 217.956 238.425 217.849C238.462 217.742 238.77 217.357 239.11 216.993C239.45 216.63 239.861 216.138 240.022 215.9C240.184 215.663 240.407 215.369 240.519 215.248C241.139 214.574 241.784 213.582 241.784 213.301C241.784 213.123 241.85 212.976 241.931 212.976C242.107 212.974 242.567 212.028 242.567 211.669C242.567 211.529 242.655 211.415 242.763 211.415C242.87 211.415 242.959 211.283 242.959 211.122C242.959 210.961 243.025 210.828 243.105 210.827C243.186 210.825 243.42 210.474 243.626 210.045C243.832 209.617 244.074 209.266 244.165 209.266C244.255 209.266 244.33 209.156 244.332 209.022C244.334 208.888 244.597 208.47 244.917 208.094C245.237 207.718 245.588 207.304 245.697 207.175C245.806 207.045 245.895 206.884 245.895 206.816C245.895 206.484 250.235 202.186 252.073 200.698C252.707 200.186 254.681 198.915 254.844 198.915C254.949 198.915 255.194 198.739 255.389 198.524C256.072 197.771 256.51 198.927 256.456 201.339C256.341 206.513 256.644 208.843 257.306 207.882C259.035 205.371 259.791 199.476 258.574 197.987C258.465 197.853 258.433 197.743 258.504 197.743C258.574 197.743 258.545 197.579 258.437 197.379C258.177 196.893 258.823 196.272 259.891 195.981C259.999 195.952 260.415 195.721 260.817 195.468C261.219 195.215 261.64 195.008 261.754 195.008C262.147 195.008 262.925 194.376 262.922 194.058C262.913 193.101 261.696 192.891 259.793 193.519ZM210.724 195.676C210.282 196.246 209.856 196.923 209.777 197.179C209.535 197.97 210.831 196.639 211.289 195.627C211.82 194.451 211.663 194.465 210.724 195.676ZM95.8272 196.717C91.7977 213.717 96.7434 230.809 113.333 257.215C122.329 271.535 125.204 287.945 121.599 304.383C121.186 306.263 120.703 308.722 120.524 309.848C120.008 313.108 115.829 322.293 115.075 321.828C114.274 321.334 115.294 314.77 117.278 307.647C120.508 296.056 120.639 291.76 118.037 282.745C115.644 274.457 111.834 268.278 103.982 259.95C94.466 249.855 87.7864 235.19 87.2136 223.133C86.8111 214.656 88.9564 207.61 95.1973 196.913C96.1318 195.311 96.163 195.301 95.8272 196.717ZM161.447 214.105C161.243 214.152 160.67 214.435 160.175 214.737C157.305 216.482 152.173 217.465 144.3 217.777C141.343 217.894 134.978 218.647 134.512 218.934C133.737 219.412 134.525 219.674 138.965 220.417C148.864 222.073 160.391 219.587 162.603 215.32C162.98 214.592 162.329 213.908 161.447 214.105ZM264.936 225.421C265.054 227.544 265.625 231.734 265.833 231.997C265.928 232.117 266.117 232.831 266.254 233.583C267.461 240.236 270.338 246.954 275.1 254.24C282.416 265.432 284.002 270.331 285.046 284.95C285.864 296.398 287.305 301.025 292.487 308.839L293.822 310.853L293.202 310.722C292.419 310.557 292.16 310.401 286.709 306.803C276.665 300.174 271.927 295.405 268.49 288.465C265.656 282.744 265.577 280.368 267.909 270.996C271.246 257.581 269.67 249.62 261.324 237.749C258.641 233.931 257.647 232.414 256.575 230.495L255.831 229.165L256.217 228.737C256.861 228.023 256.914 227.817 256.554 227.42C256.241 227.075 257.002 226.451 257.736 226.449C257.859 226.449 263.028 223.765 263.791 223.305C264.559 222.841 264.82 223.323 264.936 225.421ZM262.165 227.733C262.152 227.953 262.054 228.239 261.947 228.369C261.84 228.498 261.892 228.482 262.064 228.333C262.235 228.184 262.333 227.898 262.282 227.697C262.197 227.369 262.185 227.372 262.165 227.733ZM232.795 230.864C232.804 231.092 232.851 231.138 232.913 230.983C232.97 230.842 232.963 230.673 232.898 230.608C232.833 230.543 232.786 230.659 232.795 230.864ZM229.158 238.172C229.091 238.28 229.13 238.368 229.244 238.368C229.358 238.368 229.452 238.28 229.452 238.172C229.452 238.065 229.413 237.977 229.365 237.977C229.318 237.977 229.225 238.065 229.158 238.172ZM203.088 245.658C202.088 246.027 202.091 246.208 203.092 245.868C203.593 245.697 204.004 245.522 204.004 245.478C204.004 245.36 203.777 245.404 203.088 245.658ZM188.833 250.419C183.988 251.882 183.191 252.074 181.199 252.257C180.015 252.367 178.693 252.536 178.263 252.634C177.832 252.731 177.1 252.813 176.635 252.816C175.013 252.825 174.294 253.716 174.646 255.283C174.758 255.783 174.804 256.239 174.748 256.296C174.691 256.352 174.723 256.494 174.819 256.611C174.964 256.789 175.75 260.459 176.069 262.449C176.215 263.362 175.866 266.04 175.218 268.982C173.906 274.935 177.201 271.95 178.88 265.664C179.138 264.702 179.406 264.235 180.145 263.465C181.307 262.255 182.08 260.579 182.08 259.269C182.08 258.176 182.922 257.21 185.178 255.714C188.143 253.747 191.014 250.815 190.411 250.368C189.972 250.043 190.092 250.039 188.833 250.419ZM234.562 268.44C233.352 269.705 229.882 271.555 227.396 272.261C225.872 272.694 225.732 272.824 225.732 273.819C225.732 276.445 228.704 282.897 232.158 287.772C233.81 290.103 242.04 299.055 243.299 299.891C243.704 300.159 244.152 300.489 244.294 300.623C245.026 301.315 245.408 300.395 244.828 299.335C244.672 299.05 244.324 298.026 244.055 297.059C243.787 296.092 242.824 293.719 241.917 291.786C238.331 284.141 237.445 281.207 236.489 273.817C236.266 272.098 236.102 270.077 236.123 269.325C236.194 266.808 236.149 266.782 234.562 268.44ZM325.377 284.488C325.373 284.556 325.498 284.908 325.656 285.269C325.813 285.631 325.942 285.795 325.942 285.633C325.943 285.352 325.391 284.234 325.377 284.488ZM157.415 309.343C157.415 309.385 157.552 309.472 157.719 309.536C157.893 309.603 157.972 309.57 157.903 309.459C157.788 309.274 157.415 309.185 157.415 309.343Z" fill="#4036ED"/>
</svg>
